<?xml version="1.0" encoding="utf-8"?>
<!-- Generator: Adobe Illustrator 18.1.1, SVG Export Plug-In . SVG Version: 6.00 Build 0)  -->
<!DOCTYPE svg PUBLIC "-//W3C//DTD SVG 1.1//EN" "http://www.w3.org/Graphics/SVG/1.1/DTD/svg11.dtd">
<svg version="1.1" id="Layer_1" xmlns="http://www.w3.org/2000/svg" xmlns:xlink="http://www.w3.org/1999/xlink" x="0px" y="0px"
	 viewBox="0 0 792 612" enable-background="new 0 0 792 612" xml:space="preserve">
<g>
	<path fill="#818182" d="M50.5,317.1c-3.1-2.1-6.1-4.2-9.2-6.1l-5.6,5.6c2.9,2,5.9,4.1,8.9,6.3L50.5,317.1z"/>
	<path fill="#818182" d="M100.7,343.8c-7.5-2.2-15.9-5.8-24.7-10.6l-6.6,6.6c8.2,4.9,15.9,8.7,22.6,11.3c12.9,4.9,22.4,5,26.9,0.4
		c1.4-1.4,2.3-3.2,2.9-5.4C115.9,347,108.7,346.2,100.7,343.8"/>
	<path fill="#818182" d="M121.3,246.2c-10.1-7-19.9-12.8-28.9-17.2c4.2,9.1,9.9,19,16.9,29.2L121.3,246.2z"/>
	<path fill="#818182" d="M171.2,272.8c-7.4-2.2-15.6-5.8-24.4-10.5L131,278.2c8.1,4.9,15.7,8.6,22.3,11.2c12.8,4.9,22.2,5,26.7,0.4
		c2.9-2.9,3.9-7.9,2.9-14.6C179.3,274.9,175.4,274,171.2,272.8"/>
	<path fill="#818182" d="M63.9,232c-1.7-4.5-2.9-8.7-3.5-12.4c-6.6-0.2-11.8,1.4-15.1,4.9c-1.8,1.8-3.1,4-3.9,6.6
		c5.3-0.3,11.9,1.1,19.4,3.9c1.7,0.6,3.4,1.4,5.2,2.1C65.2,235.3,64.5,233.7,63.9,232"/>
	<path fill="#818182" d="M117,180.5c-13.7-4.1-24.1-3.4-29.7,2.3c-3.7,3.6-5.3,9.3-4.8,16.6c3.4,0.7,7.1,1.7,11,3.2
		c10.2,3.8,22.1,10.4,35.1,19.2l24.2-24.2C139.6,189.4,127.4,183.6,117,180.5"/>
	<path fill="#818182" d="M91.7,279.2l-27.3,27.3L4,367c3.8,2.5,7.8,5.1,11.8,8c3,2.1,6,4.2,8.9,6.1L85.8,320l20-20
		C101.8,293.4,97.1,286.4,91.7,279.2"/>
	<path fill="#818182" d="M120.6,323.8c-5-13.2-14.4-29.3-27.4-46.6c-12.9-17.2-22.2-33.2-27-46c-4.9-12.9-5-22.4-0.4-26.9l15.4-15.4
		c-2,6.4-1.3,14.8,1.5,24.3c4.1,14,12.9,30.7,25.4,48.5c12.4,17.7,21.1,34.3,25.2,47.9c4.1,13.7,3.4,24.1-2.3,29.7l-7.1,7.1
		C125.3,340.6,124,332.8,120.6,323.8"/>
	<path fill="#818182" d="M194.7,211.1l22.9-22.9l-17.4-17.4l-19,19C186.4,197.1,190.9,204.2,194.7,211.1"/>
	<path fill="#818182" d="M153.3,217.7l-42.9,42.9c5.1,7.3,9.6,14.5,13.5,21.3l43.5-43.5C163.3,231.8,158.6,224.9,153.3,217.7"/>
	<path fill="#818182" d="M182,262.1c3.4,9,4.7,16.8,3.4,22.6l16.4-16.4c5.7-5.6,6.4-16.1,2.3-29.7c-4-13.6-12.7-30.2-25.2-47.9
		c-1.3-1.8-2.5-3.6-3.7-5.4L150.6,210c1.3,1.8,2.6,3.7,4,5.5C167.6,232.9,177,249,182,262.1"/>
	<path fill="#818182" d="M40.8,254.8c-2.8-9.5-3.5-17.9-1.5-24.3l-6.1,6.1c-4.6,4.5-4.5,14,0.4,26.9c3.9,10.2,10.6,22.5,19.7,35.8
		l6.2-6.2C50.5,279.2,44.2,266.1,40.8,254.8"/>
	<path fill="#818182" d="M35.5,377.1c0-2.2,1.8-3.9,3.9-3.9c2.2,0,3.9,1.8,3.9,3.9c0,2.2-1.8,3.9-3.9,3.9
		C37.2,381,35.5,379.3,35.5,377.1 M35.9,377.1c0,1.9,1.5,3.5,3.5,3.5c1.9,0,3.5-1.6,3.5-3.5c0-1.9-1.5-3.5-3.5-3.5
		C37.5,373.6,35.9,375.2,35.9,377.1 M39.6,377.4h-0.9v1.8H38v-4.4h1.6c1.1,0,1.6,0.5,1.6,1.3c0,0.6-0.3,1-0.9,1.2l0.9,1.9h-0.8
		L39.6,377.4z M38.7,375.5v1.3h0.9c0.6,0,0.9-0.2,0.9-0.7c0-0.5-0.3-0.6-0.9-0.6H38.7z"/>
	<path fill="#818182" d="M389.4,332.6l7.5-21.7h0.2l7.3,21.7H389.4z M368.1,357H381l4.9-14.2h21.7l4.7,14.2h14.2L404,293h-13.3
		L368.1,357z M335.9,323.5v-18.8h9.5c8.8,0,12,3.4,12,9.3c0,6.1-3.3,9.5-12,9.5H335.9z M321.9,357h13.9v-22.6h9
		c12.7,0,26.2-3.5,26.2-20.6c0-16.8-12.4-20.4-26-20.4h-23.1V357z M276.8,332.6l7.5-21.7h0.2l7.3,21.7H276.8z M255.5,357h12.9
		l4.9-14.2H295l4.7,14.2h14.2L291.4,293h-13.3L255.5,357z M215.4,332.6l7.5-21.7h0.2l7.3,21.7H215.4z M194.2,357h12.9l4.9-14.2h21.7
		l4.7,14.2h14.2L230.1,293h-13.3L194.2,357z"/>
</g>
</svg>
