<?xml version="1.0" encoding="utf-8"?>
<!-- Generator: Adobe Illustrator 18.1.1, SVG Export Plug-In . SVG Version: 6.00 Build 0)  -->
<!DOCTYPE svg PUBLIC "-//W3C//DTD SVG 1.1//EN" "http://www.w3.org/Graphics/SVG/1.1/DTD/svg11.dtd">
<svg version="1.1" id="Layer_1" xmlns="http://www.w3.org/2000/svg" xmlns:xlink="http://www.w3.org/1999/xlink" x="0px" y="0px"
	 viewBox="0 0 468 288" enable-background="new 0 0 468 288" xml:space="preserve">
<g>
	<g>
		<defs>
			<polygon id="SVGID_1_" points="231.6,181.5 226.4,187.7 224,180 217.8,185.1 216.9,177 209.8,180.8 210.5,172.7 202.8,175 
				205.1,167.3 197,168.1 200.8,160.9 192.8,160.1 197.9,153.8 190.1,151.4 196.4,146.3 189.3,142.4 196.4,138.6 190.1,133.4 
				197.9,131 192.8,124.7 200.8,123.9 197,116.8 205.1,117.5 202.8,109.8 210.5,112.1 209.8,104 216.9,107.8 217.8,99.8 224,104.9 
				226.4,97.1 231.6,103.4 235.4,96.3 239.3,103.4 244.4,97.1 246.8,104.9 253.1,99.8 253.9,107.8 261.1,104 260.3,112.1 
				268.1,109.8 265.7,117.5 273.8,116.8 270,123.9 278.1,124.7 273,131 280.7,133.4 274.5,138.6 281.6,142.4 274.5,146.3 
				280.7,151.4 273,153.8 278.1,160.1 270,160.9 273.8,168.1 265.7,167.3 268.1,175 260.3,172.7 261.1,180.8 253.9,177 253.1,185.1 
				246.8,180 244.4,187.7 239.3,181.5 235.4,188.6 231.6,181.5 			"/>
		</defs>
		<defs>
			<rect id="SVGID_2_" x="189.3" y="96.3" width="92.3" height="92.3"/>
		</defs>
		<clipPath id="SVGID_3_">
			<use xlink:href="#SVGID_1_"  overflow="visible"/>
		</clipPath>
		<clipPath id="SVGID_4_" clip-path="url(#SVGID_3_)">
			<use xlink:href="#SVGID_2_"  overflow="visible"/>
		</clipPath>
		<g clip-path="url(#SVGID_4_)">
			<defs>
				<rect id="SVGID_5_" x="189.3" y="96.3" width="92.3" height="92.3"/>
			</defs>
			<clipPath id="SVGID_6_">
				<use xlink:href="#SVGID_5_"  overflow="visible"/>
			</clipPath>
			<g clip-path="url(#SVGID_6_)">
				
					<image overflow="visible" width="1688" height="1688" xlink:href="57A79A8A56F6AC41.jpg"  transform="matrix(5.480974e-02 0 0 5.480974e-02 189.2047 96.1648)">
				</image>
			</g>
		</g>
	</g>
	<g>
		<defs>
			<path id="SVGID_7_" d="M273.3,142.4c0,20.9-17,37.9-37.9,37.9c-20.9,0-37.9-17-37.9-37.9c0-20.9,17-37.9,37.9-37.9
				C256.3,104.5,273.3,121.5,273.3,142.4L273.3,142.4z"/>
		</defs>
		<clipPath id="SVGID_8_">
			<use xlink:href="#SVGID_7_"  overflow="visible"/>
		</clipPath>
		<g clip-path="url(#SVGID_8_)">
			<defs>
				<rect id="SVGID_9_" x="197.5" y="104.5" width="75.8" height="75.8"/>
			</defs>
			<clipPath id="SVGID_10_">
				<use xlink:href="#SVGID_9_"  overflow="visible"/>
			</clipPath>
			<g clip-path="url(#SVGID_10_)">
				
					<image overflow="visible" width="1388" height="1385" xlink:href="57A79A8A56F6AC43.jpg"  transform="matrix(5.480974e-02 0 0 5.480974e-02 197.4776 104.4378)">
				</image>
			</g>
		</g>
	</g>
	<g>
		<defs>
			<path id="SVGID_11_" d="M235.4,179.7c-9.9,0-19.3-3.9-26.3-10.9c-7-7-10.9-16.4-10.9-26.3c0-9.9,3.9-19.3,10.9-26.3
				c7-7,16.4-10.9,26.3-10.9c9.9,0,19.3,3.9,26.3,10.9c7,7,10.9,16.4,10.9,26.3c0,9.9-3.9,19.3-10.9,26.3
				C254.7,175.8,245.4,179.7,235.4,179.7L235.4,179.7L235.4,179.7z"/>
		</defs>
		<clipPath id="SVGID_12_">
			<use xlink:href="#SVGID_11_"  overflow="visible"/>
		</clipPath>
		<g clip-path="url(#SVGID_12_)">
			<defs>
				<rect id="SVGID_13_" x="198.2" y="105.2" width="74.5" height="74.5"/>
			</defs>
			<clipPath id="SVGID_14_">
				<use xlink:href="#SVGID_13_"  overflow="visible"/>
			</clipPath>
			<g clip-path="url(#SVGID_14_)">
				
					<image overflow="visible" width="1364" height="1362" xlink:href="57A79A8A56F6AC46.jpg"  transform="matrix(5.480974e-02 0 0 5.480974e-02 198.0802 105.0953)">
				</image>
			</g>
		</g>
	</g>
	<g>
		<defs>
			<path id="SVGID_15_" d="M235.4,177.1c-9.3,0-18-3.6-24.6-10.2c-6.6-6.6-10.2-15.3-10.2-24.6c0-9.3,3.6-18,10.2-24.6
				c6.6-6.6,15.3-10.2,24.6-10.2c9.3,0,18,3.6,24.6,10.2c6.6,6.6,10.2,15.3,10.2,24.6c0,9.3-3.6,18-10.2,24.6
				C253.4,173.5,244.7,177.1,235.4,177.1L235.4,177.1L235.4,177.1z"/>
		</defs>
		<clipPath id="SVGID_16_">
			<use xlink:href="#SVGID_15_"  overflow="visible"/>
		</clipPath>
		<g clip-path="url(#SVGID_16_)">
			<defs>
				<rect id="SVGID_17_" x="200.7" y="107.7" width="69.4" height="69.4"/>
			</defs>
			<clipPath id="SVGID_18_">
				<use xlink:href="#SVGID_17_"  overflow="visible"/>
			</clipPath>
			<g clip-path="url(#SVGID_18_)">
				
					<image overflow="visible" width="1272" height="1270" xlink:href="57A79A8A56F6AC47.jpg"  transform="matrix(5.480974e-02 0 0 5.480974e-02 200.6016 107.6165)">
				</image>
			</g>
		</g>
	</g>
	<path fill="#E5BC78" d="M235.4,175.9c-8.9,0-17.3-3.5-23.7-9.8c-6.3-6.3-9.8-14.7-9.8-23.7c0-8.9,3.5-17.3,9.8-23.7
		c6.3-6.3,14.7-9.8,23.7-9.8s17.3,3.5,23.7,9.8c6.3,6.3,9.8,14.7,9.8,23.7c0,8.9-3.5,17.3-9.8,23.7
		C252.8,172.4,244.4,175.9,235.4,175.9L235.4,175.9L235.4,175.9z"/>
</g>
<g>
	<path d="M125.3,183.7H125c0-2.2-1.9-4.4-4.3-4.4c-3.5,0-3.9,4.3-3.9,6.8c0,2.5,0.5,6.8,3.9,6.8c2.4,0,4.3-2.4,4.3-4.8h0.3v4.6H125
		c0-0.4-0.2-1-0.7-1c-0.6,0-1.6,1.5-3.6,1.5c-3.3,0-6.1-3.2-6.1-7.2c0-4,2.9-7.2,6.1-7.2c2,0,2.8,1.4,3.6,1.4c0.5,0,0.7-0.4,0.7-0.8
		h0.3V183.7z"/>
	<path d="M129.3,189.9c0,1.4,0.2,2.9,2,2.9c1.6,0,2.8-1.1,3.1-2.7h0.3c-0.3,1.8-1.6,3-3.4,3c-2.3,0-3.9-1.7-3.9-4.3
		c0-1.9,1.5-4.3,3.6-4.3c2.3,0,3.5,2.6,3.5,3.4c0,0.1-0.1,0.2-0.2,0.2h-5.1V189.9z M132.7,187.2c0-1.2-0.3-2.4-1.6-2.4
		c-1.4,0-1.8,1.1-1.8,2.4v0.5h3.2c0.1,0,0.1-0.1,0.1-0.1V187.2z"/>
	<path d="M137.2,185.3h-1.6v-0.3h1.6c0.6,0,1.2,0,1.6-0.4v2.3h0c0.2-0.9,0.9-2.3,2.5-2.3c0.7,0,1.3,0.5,1.3,1.1
		c0,0.5-0.3,0.9-0.9,0.9c-0.6,0-0.9-0.3-0.9-0.9c0-0.4,0.2-0.7,0.4-0.8c-0.1-0.1-0.2-0.1-0.3-0.1c-0.8,0-2.2,1.3-2.2,3.8v4h1.8v0.3
		h-5v-0.3h1.6V185.3z"/>
	<path d="M144.8,185.3h-1.7v-0.3c2,0,2.8-0.8,3.1-2.7h0.2v2.7h2.7v0.3h-2.7v6.5c0,0.8,0.3,1,1,1c1,0,1.4-0.9,1.5-1.2l0.3,0.1
		c-0.1,0.5-0.7,1.5-2.1,1.5c-1.4,0-2.3-0.4-2.3-1.7V185.3z"/>
	<path d="M151.2,185.3h-1.6v-0.3h1.6c0.6,0,1.2,0,1.6-0.4v8.1h1.6v0.3h-4.7v-0.3h1.6V185.3z M152.1,180c0.5,0,1,0.4,1,1s-0.4,1-1,1
		c-0.5,0-1-0.4-1-1S151.5,180,152.1,180z"/>
	<path d="M156.9,185.3h-1.7v-0.3h1.7v-1.3c0-2.4,1.1-5,3.1-5c1.2,0,1.7,0.9,1.7,1.8c0,0.5-0.3,0.9-0.9,0.9c-0.6,0-0.8-0.4-0.8-0.8
		c0-0.9,1-0.7,1-1.1c0-0.3-0.4-0.5-1-0.5c-0.9,0-1.5,0.5-1.5,2.7v3.3h2.2v0.3h-2.2v7.3h1.8v0.3h-5.2v-0.3h1.7V185.3z"/>
	<path d="M163.1,185.3h-1.6v-0.3h1.6c0.6,0,1.2,0,1.6-0.4v8.1h1.6v0.3h-4.7v-0.3h1.6V185.3z M163.9,180c0.5,0,1,0.4,1,1s-0.4,1-1,1
		c-0.5,0-1-0.4-1-1S163.4,180,163.9,180z"/>
	<path d="M174.8,190.2c-0.1,1.5-1.3,3-3.3,3c-2.5,0-4.1-1.8-4.1-4c0-2.5,1.9-4.6,4.2-4.6c1.4,0,2.8,0.6,2.8,1.8c0,0.6-0.4,1-0.9,1
		c-0.6,0-0.9-0.4-0.9-0.8c0-0.8,0.5-0.7,0.5-1c0-0.4-0.9-0.6-1.5-0.6c-1.9,0-2.3,1.2-2.3,3.1v1.7c0,1.7,0.1,3.2,2.3,3.2
		c2,0,2.8-1.5,3-2.7H174.8z"/>
	<path d="M183,191.9c0,0.4,0.1,0.9,0.6,0.9c0.4,0,0.7-0.4,1-0.8l0.2,0.2c-0.4,0.6-0.9,1-1.7,1c-0.9,0-1.6-0.5-1.7-1.2h0
		c-0.7,0.9-1.5,1.2-2.8,1.2c-1.5,0-2.4-0.8-2.4-2.1c0-2.2,2.9-2.7,4.9-2.7h0.4V186c0-0.9-0.9-1.1-1.6-1.1c-0.6,0-1.9,0.2-1.9,0.9
		c0,0.5,0.6,0.3,0.6,1.1c0,0.5-0.4,0.8-0.9,0.8c-0.5,0-0.9-0.4-0.9-1.1c0-1,1-2.1,3-2.1c1.5,0,3.2,0.8,3.2,2.3V191.9z M181,188.7
		c-1.4,0-3.2,0-3.2,2.1c0,1.1,0.2,1.9,1.4,1.9c1.5,0,2.1-1.1,2.1-1.5v-2.5H181z"/>
	<path d="M186.9,185.3h-1.7v-0.3c2,0,2.8-0.8,3.1-2.7h0.2v2.7h2.7v0.3h-2.7v6.5c0,0.8,0.3,1,1,1c1,0,1.4-0.9,1.5-1.2l0.3,0.1
		c-0.1,0.5-0.7,1.5-2.1,1.5c-1.4,0-2.3-0.4-2.3-1.7V185.3z"/>
	<path d="M193.3,185.3h-1.6v-0.3h1.6c0.6,0,1.2,0,1.6-0.4v8.1h1.6v0.3h-4.7v-0.3h1.6V185.3z M194.2,180c0.5,0,1,0.4,1,1s-0.4,1-1,1
		c-0.5,0-1-0.4-1-1S193.6,180,194.2,180z"/>
	<path d="M201.7,184.5c2.5,0,4.1,2.1,4.1,4.3c0,2.2-1.6,4.3-4.1,4.3c-2.5,0-4.1-2.1-4.1-4.3C197.6,186.6,199.2,184.5,201.7,184.5z
		 M204,188.1c0-1.7-0.1-3.2-2.3-3.2c-2.2,0-2.3,1.6-2.3,3.2v1.5c0,1.7,0.1,3.2,2.3,3.2c2.2,0,2.3-1.6,2.3-3.2V188.1z"/>
	<path d="M208.4,185.3h-1.5v-0.3h1.5c0.9,0,1.3,0,1.6-0.4v2h0c0.5-0.9,1.5-2,2.9-2c2.1,0,2.7,1,2.7,2.2v5.9h1.5v0.3h-4.7v-0.3h1.5
		v-6.4c0-1.1-0.5-1.4-1.1-1.4c-1.6,0-2.5,1.6-2.8,2.3v5.5h1.5v0.3h-4.6v-0.3h1.5V185.3z"/>
	<path d="M221.1,192.2c0,0.5-0.5,1-1,1c-0.5,0-1-0.4-1-1s0.4-1,1-1C220.6,191.2,221.1,191.6,221.1,192.2z"/>
</g>
<g>
	<path d="M264.8,179.5h-1.7v-0.3h10.4l0.2,3.3h-0.3c0-2.2-1.5-3-3.5-3h-3.1v6.3h1.5c2,0,2.2-1.2,2.2-2.5h0.3v5.2h-0.3
		c0-1.5-0.2-2.4-2.2-2.4h-1.4v6.5h2.7c3.1,0,4.7-0.4,4.7-3.7h0.3v4h-11.3v-0.3h1.7V179.5z"/>
	<path d="M281.1,187.7l1-1.3c0.2-0.3,0.5-0.7,0.5-0.9c0-0.3-0.3-0.4-0.9-0.4h-0.4v-0.3h3.6v0.3h-0.6c-0.8,0-1.1,0.3-1.6,0.9
		l-1.4,1.8l2.8,4.6h1.3v0.3h-4.8v-0.3h1.5l-1.9-3.2l-1.4,1.9c-0.3,0.4-0.5,0.8-0.5,1c0,0.2,0.1,0.3,0.5,0.3h0.9v0.3h-3.8v-0.3h0.5
		c1,0,1.3-0.4,2.1-1.4l1.6-2l-2.4-3.9h-1.4v-0.3h4.5v0.3h-1.2L281.1,187.7z"/>
	<path d="M293.6,190.2c-0.1,1.5-1.3,3-3.3,3c-2.5,0-4.1-1.8-4.1-4c0-2.5,1.9-4.6,4.2-4.6c1.4,0,2.8,0.6,2.8,1.8c0,0.6-0.4,1-0.9,1
		c-0.6,0-0.9-0.4-0.9-0.8c0-0.8,0.5-0.7,0.5-1c0-0.4-0.9-0.6-1.5-0.6c-1.9,0-2.3,1.2-2.3,3.1v1.7c0,1.7,0.1,3.2,2.3,3.2
		c2,0,2.8-1.5,3-2.7H293.6z"/>
	<path d="M296.7,189.9c0,1.4,0.2,2.9,2,2.9c1.6,0,2.8-1.1,3.1-2.7h0.3c-0.3,1.8-1.6,3-3.4,3c-2.3,0-3.9-1.7-3.9-4.3
		c0-1.9,1.5-4.3,3.6-4.3c2.3,0,3.5,2.6,3.5,3.4c0,0.1-0.1,0.2-0.2,0.2h-5.1V189.9z M300.1,187.2c0-1.2-0.3-2.4-1.6-2.4
		c-1.4,0-1.8,1.1-1.8,2.4v0.5h3.2c0.1,0,0.1-0.1,0.1-0.1V187.2z"/>
	<path d="M304.6,179.4H303v-0.3h1.6c0.6,0,1.2,0,1.6-0.5v14h1.6v0.3H303v-0.3h1.6V179.4z"/>
	<path d="M310,179.4h-1.6v-0.3h1.6c0.6,0,1.2,0,1.6-0.5v14h1.6v0.3h-4.7v-0.3h1.6V179.4z"/>
	<path d="M316.1,189.9c0,1.4,0.2,2.9,2,2.9c1.6,0,2.8-1.1,3.1-2.7h0.3c-0.3,1.8-1.6,3-3.4,3c-2.3,0-3.9-1.7-3.9-4.3
		c0-1.9,1.5-4.3,3.6-4.3c2.3,0,3.5,2.6,3.5,3.4c0,0.1-0.1,0.2-0.2,0.2h-5.1V189.9z M319.5,187.2c0-1.2-0.3-2.4-1.6-2.4
		c-1.4,0-1.8,1.1-1.8,2.4v0.5h3.2c0.1,0,0.1-0.1,0.1-0.1V187.2z"/>
	<path d="M323.9,185.3h-1.5v-0.3h1.5c0.9,0,1.3,0,1.6-0.4v2h0c0.5-0.9,1.5-2,2.9-2c2.1,0,2.7,1,2.7,2.2v5.9h1.5v0.3H328v-0.3h1.5
		v-6.4c0-1.1-0.5-1.4-1.1-1.4c-1.6,0-2.5,1.6-2.8,2.3v5.5h1.5v0.3h-4.6v-0.3h1.5V185.3z"/>
	<path d="M341.1,190.2c-0.1,1.5-1.3,3-3.3,3c-2.5,0-4.1-1.8-4.1-4c0-2.5,1.9-4.6,4.2-4.6c1.4,0,2.8,0.6,2.8,1.8c0,0.6-0.4,1-0.9,1
		c-0.6,0-0.9-0.4-0.9-0.8c0-0.8,0.5-0.7,0.5-1c0-0.4-0.9-0.6-1.5-0.6c-1.9,0-2.3,1.2-2.3,3.1v1.7c0,1.7,0.1,3.2,2.3,3.2
		c2,0,2.8-1.5,3-2.7H341.1z"/>
	<path d="M344.2,189.9c0,1.4,0.2,2.9,2,2.9c1.6,0,2.8-1.1,3.1-2.7h0.3c-0.3,1.8-1.6,3-3.4,3c-2.3,0-3.9-1.7-3.9-4.3
		c0-1.9,1.5-4.3,3.6-4.3c2.3,0,3.5,2.6,3.5,3.4c0,0.1-0.1,0.2-0.2,0.2h-5.1V189.9z M347.6,187.2c0-1.2-0.3-2.4-1.6-2.4
		c-1.4,0-1.8,1.1-1.8,2.4v0.5h3.2c0.1,0,0.1-0.1,0.1-0.1V187.2z"/>
	<path d="M353.9,192.2c0,0.5-0.5,1-1,1c-0.5,0-1-0.4-1-1s0.4-1,1-1C353.4,191.2,353.9,191.6,353.9,192.2z"/>
</g>
<path fill="#3D1951" d="M143.2,172.4h-2l-36.8-51.1v44.1c0,2.1,1.2,3,3.4,3.2h4.9v2.6H93.7v-2.6h4.1c2.9-0.2,3.1-2,3.1-4.5v-42.5
	c0-4.2,0.8-5.3-4.4-5.3h-2.8v-2.6h22.7l24.2,34v-29c0-1.7-3.5-2.5-5.7-2.5h-2.4v-2.6h18.1v2.6H147c-2.5,0-3.9,0.8-3.9,2.5V172.4z"/>
<path fill="#3D1951" d="M197.6,113.7h2.9v16H198c-3.3-8-7.5-14.7-17-14.7c-8,0-10.7,2.7-10.7,26.9c0,21.7,0.1,27.9,11.1,27.9
	c9.8,0,14.7-7,17.4-15.7h2.9v17h-3.1l-3.4-3.2c-4.1,2.7-8.8,4.5-13.7,4.5c-15.2,0-28.1-13.3-28.1-30.5c0-10.7,11.6-29.5,27.2-29.5
	c5.2,0,9.8,1.4,13.9,4.6L197.6,113.7z"/>
<path fill="#3D1951" d="M250.6,113.7h2.9v16H251c-3.3-8-7.5-14.7-17-14.7c-8,0-10.7,2.7-10.7,26.9c0,21.7,0.1,27.9,11.1,27.9
	c9.8,0,14.7-7,17.4-15.7h2.9v17h-3.1l-3.4-3.2c-4.1,2.7-8.8,4.5-13.7,4.5c-15.2,0-28.1-13.3-28.1-30.5c0-10.7,11.6-29.5,27.2-29.5
	c5.2,0,9.8,1.4,13.9,4.6L250.6,113.7z"/>
<path fill="#C8922C" d="M272.6,171.1v-2.6h6.4v-52.3h-6.3v-2.6h31.8c14.7,0,20.5,7.9,20.5,14.7c0,13.8-16.2,16.2-26.5,16.2h-5.2v24
	h7.7v2.6H272.6z M293.5,142h5.9c7.6,0,9.7-2.8,9.7-8.5v-9.3c0-6.8-2.8-7.9-9.7-7.9h-5.9V142z"/>
<path fill="#C8922C" d="M317.8,171.1v-2.6c2.1,0,5.8,0.1,6.8-2.5l20.3-53.6h3.4l21.3,56.1h5.2v2.6h-27.2v-2.6h6.6l-4.6-13.5h-17.6
	l-2.2,6.2c-0.9,2.6-1.7,5.1-1.7,5.8c0,2.1,6.5,1.5,7.7,1.5v2.6H317.8z M332.9,152.5h15.5l-7.6-21.1L332.9,152.5z"/>
</svg>
