<!-- Generator: Adobe Illustrator 19.1.0, SVG Export Plug-In  -->
<svg version="1.1"
	 xmlns="http://www.w3.org/2000/svg" xmlns:xlink="http://www.w3.org/1999/xlink" xmlns:a="http://ns.adobe.com/AdobeSVGViewerExtensions/3.0/"
	 x="0px" y="0px" width="347.3px" height="60px" viewBox="0 0 347.3 60" enable-background="new 0 0 347.3 60" xml:space="preserve"
	>
<defs>
</defs>
<g>
	<g>
		<g>
			<ellipse fill="#007A65" cx="31.8" cy="30" rx="31.8" ry="30"/>
			<path fill="#FFFFFF" d="M27.7,15.5c-4.1,0-8.5,0.2-11.4,0.5v1c5.1,0,4.5,2.6,4.5,2.6s0,16.4,0,20.5s-4.5,3.5-4.5,3.5v0.9h13.3
				v-0.8c-5.2,0-4.5-3.8-4.5-3.8v-8.5l5.4,0c0,0,8.5,0.1,8.5-7.7S31.8,15.5,27.7,15.5z M25,30V16.7c0,0,9.6-1.5,9.6,6.8
				C34.6,31.2,25,30,25,30z"/>
			<g>
				<path fill="#FFFFFF" d="M37.6,42.3c8.6-10.9,26-12.3,26-12.3l0-1.4C56.9,28.6,53,30,53,30l-6.3-14.5h-0.9
					c0,0-8.7,21.1-10.3,24.8c-1.5,3.7-3.7,3.1-3.7,3.1v1.1h8.4v-0.9C38.1,43.5,37.6,42.3,37.6,42.3z M44.6,20.9l4.3,10
					c0,0-4.5,1.5-10.4,4.9L44.6,20.9z"/>
				<path fill="#FFFFFF" d="M57.1,39.6l-2.8-6.1l-3.8,1.4c0,0,2.4,5.1,3,6.9c0.6,1.8-3.6,1.7-3.6,1.7v0.9h9.9l0.7-1.4
					C58.3,43.3,57.1,39.6,57.1,39.6z"/>
			</g>
			<path fill="#63686D" d="M61.6,15.5h20.5l0.6,7.4h-1c0,0-0.9-6.3-5.3-6.2h-7v12.2h5.4c0,0,1.9-0.1,1.9-2.4v-2.1h1v9.7h-1.3V32
				c0,0,0.2-2-1.8-2s-5.2,0-5.2,0v9.8c0,0,0,3.5,3.1,3.5c3.1,0,5.3,0,5.3,0s4.6,0.3,6.5-7.8h0.9l-0.5,9.1H60.5l0.7-1.5h1.4
				c0,0,2.9,0,2.9-2.7s0-21.3,0-21.3s0.2-2.4-3.9-2.4L61.6,15.5z"/>
			<path fill="#63686D" d="M111.4,40.5l-10.5-25h-0.7l-6.6,15.7c-3.2-1.6-14.9-2.5-14.9-2.5V30c19.5,0.5,28.5,12,28.5,12
				c1.3,1.4-1.8,1.5-1.8,1.5H104v1h11.2v-1C112.4,43.5,111.4,40.5,111.4,40.5z M94.6,31.3L99,20.9l6,14.3
				C105,35.2,100.4,32.6,94.6,31.3z"/>
			<path fill="#63686D" d="M92.2,34.2h1.1l-2,5.8c0,0-1,3.5,2.9,3.5v0.9h-8.5v-0.9c0,0,2.7,0.4,4.2-3.5S92.2,34.2,92.2,34.2z"/>
		</g>
	</g>
	<g>
		<g>
			<path fill="#63686D" d="M131.6,42.9l4.3-4.2c0.3-0.3,0.5-0.5,0.7-0.7s0.4-0.4,0.5-0.6s0.2-0.4,0.3-0.6s0.1-0.5,0.1-0.8
				c0-0.3-0.1-0.6-0.2-0.8c-0.1-0.2-0.3-0.4-0.4-0.6c-0.2-0.2-0.4-0.3-0.7-0.4c-0.3-0.1-0.5-0.1-0.8-0.1c-0.6,0-1.1,0.2-1.4,0.5
				c-0.4,0.3-0.6,0.8-0.7,1.3l-1.5-0.1c0.1-0.5,0.2-0.9,0.4-1.2s0.5-0.7,0.8-0.9c0.3-0.2,0.7-0.4,1.1-0.5c0.4-0.1,0.8-0.2,1.3-0.2
				c0.5,0,0.9,0.1,1.3,0.2c0.4,0.1,0.8,0.3,1.1,0.6s0.6,0.6,0.8,1s0.3,0.8,0.3,1.3c0,0.4-0.1,0.9-0.2,1.2c-0.1,0.4-0.3,0.7-0.5,1
				s-0.4,0.6-0.7,0.9c-0.3,0.3-0.5,0.5-0.8,0.8l-3.5,3.3v0h5.8v1.2h-7.3V42.9z"/>
			<path fill="#63686D" d="M140.2,38.8c0-0.6,0.1-1.3,0.2-2c0.1-0.7,0.3-1.3,0.6-1.9c0.3-0.6,0.7-1,1.2-1.4c0.5-0.4,1.1-0.6,1.9-0.6
				c0.8,0,1.4,0.2,1.9,0.6c0.5,0.4,0.9,0.8,1.2,1.4c0.3,0.6,0.5,1.2,0.6,1.9s0.2,1.4,0.2,2c0,0.6-0.1,1.3-0.2,2s-0.3,1.3-0.6,1.9
				c-0.3,0.6-0.7,1-1.2,1.4s-1.1,0.6-1.9,0.6c-0.8,0-1.4-0.2-1.9-0.6s-0.9-0.8-1.2-1.4c-0.3-0.6-0.5-1.2-0.6-1.9
				C140.3,40.1,140.2,39.4,140.2,38.8z M141.6,38.8c0,0.3,0,0.6,0,0.9c0,0.3,0.1,0.7,0.1,1s0.1,0.7,0.3,1c0.1,0.3,0.3,0.6,0.4,0.9
				c0.2,0.3,0.4,0.5,0.7,0.6c0.3,0.2,0.6,0.2,1,0.2c0.4,0,0.7-0.1,1-0.2c0.3-0.2,0.5-0.4,0.7-0.6c0.2-0.3,0.3-0.5,0.4-0.9
				c0.1-0.3,0.2-0.7,0.3-1s0.1-0.7,0.1-1c0-0.3,0-0.7,0-0.9s0-0.6,0-0.9c0-0.3-0.1-0.7-0.1-1s-0.1-0.7-0.3-1
				c-0.1-0.3-0.3-0.6-0.4-0.9s-0.4-0.5-0.7-0.6c-0.3-0.2-0.6-0.2-1-0.2c-0.4,0-0.7,0.1-1,0.2c-0.3,0.2-0.5,0.4-0.7,0.6
				c-0.2,0.3-0.3,0.5-0.4,0.9c-0.1,0.3-0.2,0.7-0.3,1s-0.1,0.7-0.1,1C141.6,38.2,141.6,38.5,141.6,38.8z"/>
			<path fill="#63686D" d="M154.2,44.5h-1.3v-9.6h0l-2,1.7l-0.8-1l3-2.5h1.2V44.5z"/>
			<path fill="#63686D" d="M160.5,37.8L160.5,37.8c0.2-0.1,0.5-0.2,0.8-0.2c0.3-0.1,0.5-0.1,0.8-0.1c0.5,0,0.9,0.1,1.4,0.3
				s0.8,0.4,1.1,0.7c0.3,0.3,0.5,0.7,0.7,1.1s0.3,0.9,0.3,1.4c0,0.6-0.1,1.1-0.3,1.5c-0.2,0.4-0.5,0.8-0.8,1.1
				c-0.3,0.3-0.7,0.5-1.2,0.7c-0.5,0.2-1,0.2-1.5,0.2c-0.5,0-1-0.1-1.5-0.2c-0.5-0.2-0.9-0.4-1.2-0.7c-0.3-0.3-0.6-0.7-0.8-1.1
				c-0.2-0.4-0.3-0.9-0.3-1.5c0-0.7,0.1-1.2,0.3-1.7c0.2-0.5,0.5-1,0.8-1.5l3-4.8h1.6L160.5,37.8z M161.7,38.7c-0.3,0-0.7,0.1-1,0.2
				c-0.3,0.1-0.6,0.3-0.8,0.5s-0.4,0.5-0.5,0.8c-0.1,0.3-0.2,0.6-0.2,1c0,0.4,0.1,0.7,0.2,1c0.1,0.3,0.3,0.5,0.5,0.8
				s0.5,0.4,0.8,0.5c0.3,0.1,0.6,0.2,1,0.2c0.3,0,0.7-0.1,1-0.2c0.3-0.1,0.6-0.3,0.8-0.5c0.2-0.2,0.4-0.5,0.5-0.8
				c0.1-0.3,0.2-0.6,0.2-1c0-0.4-0.1-0.7-0.2-1c-0.1-0.3-0.3-0.6-0.5-0.8c-0.2-0.2-0.5-0.4-0.8-0.5C162.3,38.8,162,38.7,161.7,38.7z
				"/>
			<path fill="#63686D" d="M177.2,35.1c-0.2-0.4-0.5-0.6-0.9-0.8c-0.4-0.2-0.8-0.2-1.2-0.2c-0.3,0-0.6,0-0.9,0.1
				c-0.3,0.1-0.5,0.2-0.8,0.3s-0.4,0.3-0.6,0.6c-0.1,0.2-0.2,0.5-0.2,0.9c0,0.3,0,0.5,0.1,0.7c0.1,0.2,0.2,0.4,0.4,0.5
				c0.2,0.2,0.4,0.3,0.7,0.4c0.3,0.1,0.7,0.3,1.1,0.4c0.4,0.1,0.9,0.3,1.3,0.4s0.8,0.4,1.1,0.6s0.6,0.6,0.8,0.9s0.3,0.8,0.3,1.4
				c0,0.6-0.1,1.1-0.3,1.5c-0.2,0.4-0.5,0.8-0.9,1c-0.4,0.3-0.8,0.5-1.3,0.6c-0.5,0.1-1,0.2-1.5,0.2c-0.3,0-0.7,0-1-0.1
				c-0.3-0.1-0.6-0.2-1-0.3c-0.3-0.1-0.6-0.3-0.9-0.5s-0.5-0.4-0.7-0.7l1.2-0.9c0.2,0.4,0.6,0.7,1,0.9c0.4,0.2,0.9,0.3,1.4,0.3
				c0.3,0,0.6,0,0.9-0.1c0.3-0.1,0.6-0.2,0.8-0.4c0.2-0.2,0.4-0.4,0.6-0.6s0.2-0.5,0.2-0.8c0-0.4-0.1-0.6-0.2-0.9s-0.3-0.4-0.5-0.6
				c-0.2-0.2-0.6-0.3-0.9-0.4c-0.4-0.1-0.8-0.3-1.3-0.4c-0.4-0.1-0.8-0.3-1.1-0.4c-0.3-0.2-0.6-0.4-0.9-0.6s-0.4-0.5-0.6-0.9
				s-0.2-0.7-0.2-1.2c0-0.5,0.1-1,0.3-1.4s0.5-0.7,0.9-1c0.4-0.3,0.8-0.5,1.2-0.6s0.9-0.2,1.4-0.2c0.6,0,1.2,0.1,1.8,0.3
				c0.5,0.2,1,0.5,1.4,1L177.2,35.1z"/>
			<path fill="#63686D" d="M188.2,34.4h-3.7v10.1h-1.3V34.4h-3.7v-1.2h8.8V34.4z"/>
			<path fill="#63686D" d="M192,33.1h1.3l4.8,11.3h-1.6l-1.2-2.8h-5.7l-1.2,2.8H187L192,33.1z M192.6,34.9L192.6,34.9l-2.4,5.6h4.6
				L192.6,34.9z"/>
			<path fill="#63686D" d="M199.5,33.1h1.3V38h0.2l5.2-4.9h1.9l-5.6,5.2l5.9,6.2h-2l-5.4-5.8h-0.2v5.8h-1.3V33.1z"/>
			<path fill="#63686D" d="M209.5,33.1h7.1v1.2h-5.8v3.6h5.4v1.2h-5.4v4h6.1v1.2h-7.4V33.1z"/>
			<path fill="#63686D" d="M218.9,33.1h1.3v4.8h6v-4.8h1.3v11.3h-1.3v-5.3h-6v5.3h-1.3V33.1z"/>
			<path fill="#63686D" d="M235.6,44.7c-0.9,0-1.7-0.1-2.4-0.4s-1.3-0.7-1.9-1.2c-0.5-0.5-0.9-1.2-1.2-1.9c-0.3-0.7-0.4-1.5-0.4-2.4
				s0.1-1.6,0.4-2.4c0.3-0.7,0.7-1.4,1.2-1.9c0.5-0.5,1.2-0.9,1.9-1.2s1.5-0.4,2.4-0.4s1.7,0.1,2.4,0.4s1.3,0.7,1.9,1.2
				c0.5,0.5,0.9,1.2,1.2,1.9c0.3,0.7,0.4,1.5,0.4,2.4s-0.1,1.6-0.4,2.4c-0.3,0.7-0.7,1.4-1.2,1.9s-1.2,0.9-1.9,1.2
				S236.5,44.7,235.6,44.7z M235.6,43.5c0.7,0,1.3-0.1,1.8-0.4c0.5-0.2,1-0.6,1.4-1c0.4-0.4,0.7-0.9,0.9-1.5s0.3-1.2,0.3-1.8
				s-0.1-1.3-0.3-1.8s-0.5-1.1-0.9-1.5c-0.4-0.4-0.9-0.8-1.4-1c-0.5-0.2-1.2-0.4-1.8-0.4s-1.3,0.1-1.8,0.4c-0.5,0.2-1,0.6-1.4,1
				c-0.4,0.4-0.7,0.9-0.9,1.5s-0.3,1.2-0.3,1.8s0.1,1.3,0.3,1.8s0.5,1.1,0.9,1.5c0.4,0.4,0.9,0.8,1.4,1
				C234.3,43.4,234.9,43.5,235.6,43.5z"/>
			<path fill="#63686D" d="M243.6,33.1h1.3v10.1h5.2v1.2h-6.5V33.1z"/>
			<path fill="#63686D" d="M251.3,33.1h4.4c0.4,0,0.8,0,1.2,0.1c0.4,0.1,0.8,0.2,1.2,0.4c0.4,0.2,0.8,0.4,1.2,0.7
				c0.4,0.3,0.7,0.7,1,1.1c0.3,0.4,0.5,0.9,0.7,1.5c0.2,0.5,0.3,1.2,0.3,1.9s-0.1,1.3-0.3,1.9c-0.2,0.5-0.4,1-0.7,1.5
				c-0.3,0.4-0.6,0.8-1,1.1c-0.4,0.3-0.8,0.5-1.2,0.7c-0.4,0.2-0.8,0.3-1.2,0.4c-0.4,0.1-0.8,0.1-1.2,0.1h-4.4V33.1z M252.7,43.2
				h2.6c0.7,0,1.3-0.1,1.8-0.3s1-0.4,1.4-0.8s0.7-0.8,1-1.4c0.2-0.6,0.4-1.2,0.4-2s-0.1-1.4-0.4-2c-0.2-0.6-0.6-1-1-1.4
				s-0.9-0.6-1.4-0.8s-1.2-0.3-1.8-0.3h-2.6V43.2z"/>
			<path fill="#63686D" d="M263.3,33.1h7.1v1.2h-5.8v3.6h5.4v1.2h-5.4v4h6.1v1.2h-7.4V33.1z"/>
			<path fill="#63686D" d="M272.7,33.1h2.9c0.5,0,1.1,0,1.6,0.1c0.5,0.1,1,0.2,1.4,0.4c0.4,0.2,0.8,0.5,1,0.9c0.3,0.4,0.4,1,0.4,1.7
				c0,0.8-0.3,1.5-0.8,2c-0.5,0.5-1.2,0.8-2.1,1l3.2,5.2h-1.6l-3.1-5.1h-1.7v5.1h-1.3V33.1z M274.1,38.1h1.2c0.4,0,0.8,0,1.2,0
				c0.4,0,0.8-0.1,1.1-0.2s0.6-0.3,0.8-0.6c0.2-0.3,0.3-0.6,0.3-1.1c0-0.4-0.1-0.7-0.2-1c-0.2-0.2-0.4-0.4-0.6-0.6
				c-0.3-0.1-0.6-0.2-0.9-0.3c-0.3,0-0.7-0.1-1-0.1h-1.9V38.1z"/>
			<path fill="#63686D" d="M292.1,35.1c-0.2-0.4-0.5-0.6-0.9-0.8c-0.4-0.2-0.8-0.2-1.2-0.2c-0.3,0-0.6,0-0.9,0.1
				c-0.3,0.1-0.5,0.2-0.8,0.3c-0.2,0.1-0.4,0.3-0.6,0.6s-0.2,0.5-0.2,0.9c0,0.3,0,0.5,0.1,0.7s0.2,0.4,0.4,0.5
				c0.2,0.2,0.4,0.3,0.7,0.4s0.7,0.3,1.1,0.4c0.4,0.1,0.9,0.3,1.3,0.4c0.4,0.2,0.8,0.4,1.1,0.6s0.6,0.6,0.8,0.9s0.3,0.8,0.3,1.4
				c0,0.6-0.1,1.1-0.3,1.5c-0.2,0.4-0.5,0.8-0.9,1c-0.4,0.3-0.8,0.5-1.3,0.6c-0.5,0.1-1,0.2-1.5,0.2c-0.3,0-0.7,0-1-0.1
				c-0.3-0.1-0.6-0.2-1-0.3c-0.3-0.1-0.6-0.3-0.9-0.5s-0.5-0.4-0.7-0.7l1.2-0.9c0.2,0.4,0.6,0.7,1,0.9c0.4,0.2,0.9,0.3,1.4,0.3
				c0.3,0,0.6,0,0.9-0.1c0.3-0.1,0.6-0.2,0.8-0.4c0.2-0.2,0.4-0.4,0.6-0.6s0.2-0.5,0.2-0.8c0-0.4-0.1-0.6-0.2-0.9s-0.3-0.4-0.5-0.6
				s-0.6-0.3-0.9-0.4c-0.4-0.1-0.8-0.3-1.3-0.4c-0.4-0.1-0.8-0.3-1.1-0.4c-0.3-0.2-0.6-0.4-0.9-0.6s-0.4-0.5-0.6-0.9
				c-0.1-0.3-0.2-0.7-0.2-1.2c0-0.5,0.1-1,0.3-1.4c0.2-0.4,0.5-0.7,0.9-1c0.4-0.3,0.8-0.5,1.2-0.6c0.5-0.1,0.9-0.2,1.4-0.2
				c0.6,0,1.2,0.1,1.8,0.3c0.5,0.2,1,0.5,1.4,1L292.1,35.1z"/>
			<path fill="#63686D" d="M304.1,40.1c0,0.6-0.1,1.2-0.2,1.8c-0.2,0.6-0.4,1-0.7,1.5c-0.3,0.4-0.8,0.8-1.3,1
				c-0.5,0.2-1.2,0.4-2,0.4s-1.4-0.1-2-0.4c-0.5-0.3-1-0.6-1.3-1c-0.3-0.4-0.6-0.9-0.7-1.5c-0.2-0.6-0.2-1.1-0.2-1.8v-7h1.3v6.8
				c0,0.5,0,0.9,0.1,1.3c0.1,0.4,0.3,0.8,0.5,1.1c0.2,0.3,0.5,0.6,0.9,0.8c0.4,0.2,0.8,0.3,1.4,0.3s1-0.1,1.4-0.3
				c0.4-0.2,0.7-0.5,0.9-0.8c0.2-0.3,0.4-0.7,0.5-1.1c0.1-0.4,0.1-0.9,0.1-1.3v-6.8h1.3V40.1z"/>
			<path fill="#63686D" d="M306.8,33.1h2l3.8,8.9h0l3.9-8.9h2v11.3h-1.3V35h0l-4.1,9.5h-0.8l-4.1-9.5h0v9.5h-1.3V33.1z"/>
			<path fill="#63686D" d="M321.2,33.1h2L327,42h0l3.9-8.9h2v11.3h-1.3V35h0l-4.1,9.5h-0.8l-4.1-9.5h0v9.5h-1.3V33.1z"/>
			<path fill="#63686D" d="M335.6,33.1h1.3v11.3h-1.3V33.1z"/>
			<path fill="#63686D" d="M347.3,34.4h-3.7v10.1h-1.3V34.4h-3.7v-1.2h8.8V34.4z"/>
		</g>
	</g>
</g>
</svg>
