<?xml version="1.0" encoding="utf-8"?>
<!-- Generator: Adobe Illustrator 18.1.1, SVG Export Plug-In . SVG Version: 6.00 Build 0)  -->
<svg version="1.1" id="Layer_1" xmlns="http://www.w3.org/2000/svg" xmlns:xlink="http://www.w3.org/1999/xlink" x="0px" y="0px"
	 viewBox="-49 88.9 325 90" enable-background="new -49 88.9 325 90" xml:space="preserve">
<g>
	<ellipse fill="#007A65" cx="-6" cy="129.4" rx="43" ry="40.5"/>
	<path fill="#FFFFFF" d="M-11.5,109.8c-5.5,0-11.4,0.2-15.4,0.6v1.4c6.9,0,6,3.6,6,3.6s0,22.1,0,27.8s-6,4.7-6,4.7v1.2H-9v-1.2
		c-7,0-6.1-5.2-6.1-5.2v-11.5h7.2c0,0,11.5,0.1,11.5-10.4S-6,109.8-11.5,109.8z M-15.2,129.4v-17.9c0,0,13-2,13,9.2
		C-2.2,131-15.2,129.4-15.2,129.4z"/>
	<g>
		<path fill="#FFFFFF" d="M1.9,146C13.5,131.3,37,129.4,37,129.4v-1.9c-9,0-14.3,1.9-14.3,1.9l-8.5-19.7H13c0,0-11.8,28.5-13.9,33.5
			s-5,4.2-5,4.2v1.5H5.4v-1.2C2.5,147.7,1.9,146,1.9,146z M11.3,117.2l5.8,13.5c0,0-6.1,2-14,6.6L11.3,117.2z"/>
		<path fill="#FFFFFF" d="M28.1,142.5l-3.8-8.2l-5.2,1.8c0,0,3.2,6.9,4.1,9.3c0.9,2.5-4.9,2.3-4.9,2.3v1.2h13.4l1-1.8
			C29.7,147.4,28.1,142.5,28.1,142.5z"/>
	</g>
	<path fill="#63686D" d="M34.3,109.8H62l0.9,9.9h-1.4c0,0-1.2-8.5-7.1-8.4H45v16.5h7.2c0,0,2.6-0.1,2.6-3.2v-2.8h1.4v13.1h-1.7v-2.8
		c0,0,0.2-2.8-2.5-2.8s-7,0-7,0v13.2c0,0,0,4.7,4.2,4.7s7.1,0,7.1,0s6.3,0.4,8.7-10.6h1.2l-0.7,12.3H32.7l1-2h1.8c0,0,3.9,0,3.9-3.7
		c0-3.7,0-28.7,0-28.7s0.2-3.2-5.3-3.2L34.3,109.8z"/>
	<path fill="#63686D" d="M101.5,143.6l-14.1-33.8h-1l-9,21.3c-4.3-2.2-20.1-3.3-20.1-3.3v1.7c26.4,0.7,38.6,16.3,38.6,16.3
		c1.7,1.8-2.5,2-2.5,2h-1.8v1.4h15.1v-1.4C102.8,147.6,101.5,143.6,101.5,143.6z M78.9,131.2l5.9-14l8.1,19.3
		C92.9,136.4,86.7,133,78.9,131.2z"/>
	<path fill="#63686D" d="M75.6,135.1h1.5l-2.7,7.9c0,0-1.4,4.8,3.9,4.8v1.2H66.9v-1.2c0,0,3.7,0.5,5.7-4.8
		C74.6,137.7,75.6,135.1,75.6,135.1z"/>
</g>
<g>
	<path fill="#63686D" d="M32.1,174.3l4.8-4.7c0.3-0.3,0.6-0.6,0.8-0.8c0.2-0.2,0.4-0.5,0.6-0.7c0.2-0.2,0.3-0.5,0.3-0.7
		c0.1-0.3,0.1-0.5,0.1-0.8c0-0.3-0.1-0.6-0.2-0.9c-0.1-0.3-0.3-0.5-0.5-0.7s-0.5-0.3-0.7-0.4c-0.3-0.1-0.6-0.2-0.9-0.2
		c-0.6,0-1.2,0.2-1.6,0.6c-0.4,0.4-0.7,0.9-0.8,1.5l-1.6-0.1c0.1-0.5,0.2-1,0.5-1.4c0.2-0.4,0.5-0.7,0.9-1c0.4-0.3,0.8-0.5,1.2-0.6
		c0.4-0.1,0.9-0.2,1.4-0.2c0.5,0,1,0.1,1.5,0.2c0.5,0.2,0.9,0.4,1.2,0.7c0.4,0.3,0.6,0.6,0.8,1.1c0.2,0.4,0.3,0.9,0.3,1.5
		c0,0.5-0.1,1-0.2,1.4c-0.1,0.4-0.3,0.8-0.6,1.1c-0.2,0.3-0.5,0.7-0.8,1c-0.3,0.3-0.6,0.6-0.9,0.9l-3.9,3.7v0h6.5v1.4h-8.2V174.3z"
		/>
	<path fill="#63686D" d="M41.8,169.7c0-0.7,0.1-1.5,0.2-2.2c0.1-0.8,0.3-1.5,0.7-2.1c0.3-0.6,0.8-1.2,1.3-1.6
		c0.6-0.4,1.3-0.6,2.2-0.6s1.6,0.2,2.2,0.6c0.6,0.4,1,0.9,1.3,1.6c0.3,0.6,0.5,1.4,0.7,2.1s0.2,1.5,0.2,2.2s-0.1,1.5-0.2,2.2
		s-0.3,1.5-0.7,2.1c-0.3,0.6-0.8,1.2-1.3,1.6c-0.6,0.4-1.3,0.6-2.2,0.6s-1.6-0.2-2.2-0.6c-0.6-0.4-1-0.9-1.3-1.6
		c-0.3-0.6-0.5-1.4-0.7-2.1C41.8,171.2,41.8,170.4,41.8,169.7z M43.3,169.7c0,0.3,0,0.7,0,1c0,0.4,0.1,0.8,0.1,1.2
		c0.1,0.4,0.2,0.8,0.3,1.1s0.3,0.7,0.5,1c0.2,0.3,0.5,0.5,0.8,0.7s0.7,0.3,1.1,0.3s0.8-0.1,1.1-0.3c0.3-0.2,0.6-0.4,0.8-0.7
		s0.4-0.6,0.5-1s0.2-0.8,0.3-1.1s0.1-0.8,0.1-1.2c0-0.4,0-0.7,0-1s0-0.7,0-1c0-0.4-0.1-0.8-0.1-1.2s-0.2-0.8-0.3-1.1
		c-0.1-0.4-0.3-0.7-0.5-1s-0.5-0.5-0.8-0.7c-0.3-0.2-0.7-0.3-1.1-0.3s-0.8,0.1-1.1,0.3s-0.6,0.4-0.8,0.7c-0.2,0.3-0.4,0.6-0.5,1
		c-0.1,0.4-0.2,0.8-0.3,1.1c-0.1,0.4-0.1,0.8-0.1,1.2C43.3,169,43.3,169.4,43.3,169.7z"/>
	<path fill="#63686D" d="M57.5,176.1H56v-10.8h0l-2.3,1.9l-0.9-1.1l3.4-2.8h1.3V176.1z"/>
	<path fill="#63686D" d="M64.6,168.6L64.6,168.6c0.3-0.1,0.6-0.2,0.9-0.3c0.3-0.1,0.6-0.1,0.9-0.1c0.6,0,1.1,0.1,1.5,0.3
		c0.5,0.2,0.9,0.5,1.2,0.8c0.3,0.4,0.6,0.8,0.8,1.3c0.2,0.5,0.3,1,0.3,1.6c0,0.6-0.1,1.2-0.3,1.7c-0.2,0.5-0.5,0.9-0.9,1.3
		c-0.4,0.3-0.8,0.6-1.4,0.8c-0.5,0.2-1.1,0.3-1.7,0.3c-0.6,0-1.2-0.1-1.7-0.3c-0.5-0.2-1-0.5-1.4-0.8c-0.4-0.3-0.7-0.8-0.9-1.3
		s-0.3-1-0.3-1.7c0-0.7,0.1-1.4,0.3-1.9c0.2-0.6,0.5-1.1,0.9-1.7l3.4-5.4H68L64.6,168.6z M65.9,169.6c-0.4,0-0.7,0.1-1.1,0.2
		s-0.6,0.3-0.9,0.5c-0.2,0.2-0.4,0.5-0.6,0.9c-0.1,0.3-0.2,0.7-0.2,1.1c0,0.4,0.1,0.8,0.2,1.1c0.1,0.3,0.3,0.6,0.6,0.8
		c0.2,0.2,0.5,0.4,0.9,0.5s0.7,0.2,1.1,0.2c0.4,0,0.7-0.1,1.1-0.2s0.6-0.3,0.9-0.5c0.2-0.2,0.4-0.5,0.6-0.8c0.1-0.3,0.2-0.7,0.2-1.1
		c0-0.4-0.1-0.8-0.2-1.1c-0.1-0.3-0.3-0.6-0.6-0.9c-0.2-0.2-0.5-0.4-0.9-0.5S66.3,169.6,65.9,169.6z"/>
	<path fill="#63686D" d="M83.4,165.6c-0.3-0.4-0.6-0.7-1-0.9c-0.4-0.2-0.9-0.3-1.3-0.3c-0.3,0-0.7,0-1,0.1c-0.3,0.1-0.6,0.2-0.9,0.4
		c-0.3,0.2-0.5,0.4-0.6,0.7c-0.2,0.3-0.2,0.6-0.2,1c0,0.3,0,0.5,0.1,0.8c0.1,0.2,0.2,0.4,0.4,0.6s0.5,0.3,0.8,0.5
		c0.3,0.2,0.8,0.3,1.3,0.5c0.5,0.2,1,0.3,1.4,0.5c0.5,0.2,0.9,0.4,1.2,0.7c0.4,0.3,0.6,0.6,0.8,1s0.3,0.9,0.3,1.6
		c0,0.6-0.1,1.2-0.4,1.7s-0.6,0.9-1,1.2c-0.4,0.3-0.9,0.5-1.4,0.7c-0.5,0.2-1.1,0.2-1.7,0.2c-0.4,0-0.7,0-1.1-0.1
		c-0.4-0.1-0.7-0.2-1.1-0.3s-0.7-0.3-1-0.5c-0.3-0.2-0.6-0.5-0.8-0.8l1.3-1.1c0.3,0.5,0.7,0.8,1.2,1.1c0.5,0.2,1,0.4,1.6,0.4
		c0.3,0,0.7,0,1-0.1c0.3-0.1,0.6-0.2,0.9-0.4c0.3-0.2,0.5-0.4,0.6-0.7c0.2-0.3,0.3-0.6,0.3-1c0-0.4-0.1-0.7-0.2-1s-0.3-0.5-0.6-0.6
		c-0.3-0.2-0.6-0.3-1-0.5c-0.4-0.1-0.9-0.3-1.5-0.5c-0.5-0.1-0.9-0.3-1.3-0.5c-0.4-0.2-0.7-0.4-1-0.7c-0.3-0.3-0.5-0.6-0.7-1
		s-0.2-0.8-0.2-1.4c0-0.6,0.1-1.1,0.4-1.6c0.2-0.5,0.6-0.8,1-1.1c0.4-0.3,0.9-0.5,1.4-0.7c0.5-0.2,1.1-0.2,1.6-0.2
		c0.7,0,1.4,0.1,2,0.3c0.6,0.2,1.1,0.6,1.6,1.2L83.4,165.6z"/>
	<path fill="#63686D" d="M95.8,164.7h-4.2v11.3h-1.5v-11.3h-4.2v-1.4h9.9V164.7z"/>
	<path fill="#63686D" d="M100,163.3h1.4l5.4,12.7h-1.8l-1.3-3.1h-6.4l-1.3,3.1h-1.7L100,163.3z M100.7,165.3L100.7,165.3l-2.7,6.3
		h5.2L100.7,165.3z"/>
	<path fill="#63686D" d="M108.4,163.3h1.5v5.5h0.2l5.8-5.5h2.2l-6.3,5.8l6.6,6.9h-2.2l-6.1-6.5h-0.2v6.5h-1.5V163.3z"/>
	<path fill="#63686D" d="M119.7,163.3h8v1.4h-6.5v4h6.1v1.4h-6.1v4.5h6.8v1.4h-8.3V163.3z"/>
	<path fill="#63686D" d="M130.3,163.3h1.5v5.4h6.8v-5.4h1.5v12.7h-1.5v-5.9h-6.8v5.9h-1.5V163.3z"/>
	<path fill="#63686D" d="M149.1,176.4c-1,0-1.9-0.2-2.7-0.5c-0.8-0.3-1.5-0.8-2.1-1.4c-0.6-0.6-1.1-1.3-1.4-2.1s-0.5-1.7-0.5-2.7
		s0.2-1.9,0.5-2.7c0.3-0.8,0.8-1.5,1.4-2.1c0.6-0.6,1.3-1.1,2.1-1.4s1.7-0.5,2.7-0.5s1.9,0.2,2.7,0.5c0.8,0.3,1.5,0.8,2.1,1.4
		c0.6,0.6,1.1,1.3,1.4,2.1c0.3,0.8,0.5,1.7,0.5,2.7s-0.2,1.9-0.5,2.7s-0.8,1.5-1.4,2.1s-1.3,1.1-2.1,1.4
		C151,176.2,150.1,176.4,149.1,176.4z M149.1,175c0.7,0,1.4-0.1,2-0.4s1.1-0.7,1.6-1.1c0.4-0.5,0.8-1,1-1.7c0.2-0.6,0.4-1.3,0.4-2.1
		c0-0.7-0.1-1.4-0.4-2.1c-0.2-0.6-0.6-1.2-1-1.7c-0.4-0.5-1-0.9-1.6-1.1s-1.3-0.4-2-0.4s-1.4,0.1-2,0.4s-1.1,0.7-1.6,1.1
		c-0.4,0.5-0.8,1-1,1.7c-0.2,0.6-0.4,1.3-0.4,2.1c0,0.7,0.1,1.4,0.4,2.1c0.2,0.6,0.6,1.2,1,1.7c0.4,0.5,1,0.9,1.6,1.1
		S148.3,175,149.1,175z"/>
	<path fill="#63686D" d="M158.1,163.3h1.5v11.3h5.8v1.4h-7.3V163.3z"/>
	<path fill="#63686D" d="M166.8,163.3h4.9c0.4,0,0.9,0,1.3,0.1c0.5,0.1,0.9,0.2,1.4,0.5c0.5,0.2,0.9,0.5,1.3,0.8s0.8,0.7,1.1,1.2
		c0.3,0.5,0.6,1,0.8,1.6c0.2,0.6,0.3,1.3,0.3,2.1s-0.1,1.5-0.3,2.1c-0.2,0.6-0.5,1.2-0.8,1.6c-0.3,0.5-0.7,0.9-1.1,1.2
		s-0.9,0.6-1.3,0.8s-0.9,0.4-1.4,0.5c-0.5,0.1-0.9,0.1-1.3,0.1h-4.9V163.3z M168.3,174.7h2.9c0.7,0,1.4-0.1,2-0.3
		c0.6-0.2,1.2-0.5,1.6-0.9c0.5-0.4,0.8-0.9,1.1-1.5c0.3-0.6,0.4-1.4,0.4-2.2s-0.1-1.6-0.4-2.2c-0.3-0.6-0.6-1.1-1.1-1.5
		c-0.5-0.4-1-0.7-1.6-0.9c-0.6-0.2-1.3-0.3-2-0.3h-2.9V174.7z"/>
	<path fill="#63686D" d="M180.2,163.3h8v1.4h-6.5v4h6.1v1.4h-6.1v4.5h6.8v1.4h-8.3V163.3z"/>
	<path fill="#63686D" d="M190.8,163.3h3.3c0.6,0,1.2,0,1.8,0.1c0.6,0.1,1.1,0.2,1.6,0.5s0.9,0.6,1.2,1.1s0.5,1.1,0.5,1.9
		c0,0.9-0.3,1.7-0.8,2.3c-0.6,0.6-1.3,0.9-2.3,1.1l3.6,5.9h-1.9l-3.5-5.7h-1.9v5.7h-1.5V163.3z M192.3,168.9h1.4c0.4,0,0.9,0,1.3,0
		s0.9-0.1,1.2-0.2c0.4-0.1,0.7-0.3,0.9-0.6c0.2-0.3,0.4-0.7,0.4-1.2c0-0.5-0.1-0.8-0.3-1.1c-0.2-0.3-0.4-0.5-0.7-0.6
		c-0.3-0.1-0.6-0.2-1-0.3c-0.4,0-0.7-0.1-1.1-0.1h-2.1V168.9z"/>
	<path fill="#63686D" d="M212.7,165.6c-0.3-0.4-0.6-0.7-1-0.9c-0.4-0.2-0.9-0.3-1.3-0.3c-0.3,0-0.7,0-1,0.1
		c-0.3,0.1-0.6,0.2-0.9,0.4c-0.3,0.2-0.5,0.4-0.6,0.7c-0.2,0.3-0.2,0.6-0.2,1c0,0.3,0,0.5,0.1,0.8c0.1,0.2,0.2,0.4,0.4,0.6
		s0.5,0.3,0.8,0.5c0.3,0.2,0.8,0.3,1.3,0.5c0.5,0.2,1,0.3,1.4,0.5c0.5,0.2,0.9,0.4,1.2,0.7c0.4,0.3,0.6,0.6,0.8,1
		c0.2,0.4,0.3,0.9,0.3,1.6c0,0.6-0.1,1.2-0.4,1.7s-0.6,0.9-1,1.2c-0.4,0.3-0.9,0.5-1.4,0.7c-0.5,0.2-1.1,0.2-1.7,0.2
		c-0.4,0-0.7,0-1.1-0.1s-0.7-0.2-1.1-0.3s-0.7-0.3-1-0.5s-0.6-0.5-0.8-0.8l1.3-1.1c0.3,0.5,0.7,0.8,1.2,1.1c0.5,0.2,1,0.4,1.6,0.4
		c0.3,0,0.7,0,1-0.1c0.3-0.1,0.6-0.2,0.9-0.4c0.3-0.2,0.5-0.4,0.6-0.7c0.2-0.3,0.3-0.6,0.3-1c0-0.4-0.1-0.7-0.2-1
		c-0.1-0.2-0.3-0.5-0.6-0.6c-0.3-0.2-0.6-0.3-1-0.5c-0.4-0.1-0.9-0.3-1.5-0.5c-0.5-0.1-0.9-0.3-1.3-0.5c-0.4-0.2-0.7-0.4-1-0.7
		c-0.3-0.3-0.5-0.6-0.7-1s-0.2-0.8-0.2-1.4c0-0.6,0.1-1.1,0.4-1.6s0.6-0.8,1-1.1c0.4-0.3,0.9-0.5,1.4-0.7c0.5-0.2,1.1-0.2,1.6-0.2
		c0.7,0,1.4,0.1,2,0.3c0.6,0.2,1.1,0.6,1.6,1.2L212.7,165.6z"/>
	<path fill="#63686D" d="M226.1,171.2c0,0.7-0.1,1.4-0.3,2s-0.5,1.2-0.8,1.6c-0.4,0.5-0.9,0.9-1.5,1.1c-0.6,0.3-1.4,0.4-2.2,0.4
		s-1.6-0.1-2.2-0.4c-0.6-0.3-1.1-0.7-1.5-1.1c-0.4-0.5-0.7-1-0.8-1.6s-0.3-1.3-0.3-2v-7.9h1.5v7.7c0,0.5,0.1,1,0.2,1.5
		c0.1,0.5,0.3,0.9,0.5,1.3c0.3,0.4,0.6,0.7,1,0.9s0.9,0.3,1.6,0.3s1.2-0.1,1.6-0.3s0.8-0.5,1-0.9c0.3-0.4,0.4-0.8,0.5-1.3
		c0.1-0.5,0.2-1,0.2-1.5v-7.7h1.5V171.2z"/>
	<path fill="#63686D" d="M229.2,163.3h2.2l4.3,10h0l4.4-10h2.2v12.7h-1.5v-10.7h0l-4.6,10.7h-0.9l-4.6-10.7h0v10.7h-1.5V163.3z"/>
	<path fill="#63686D" d="M245.4,163.3h2.2l4.3,10h0l4.4-10h2.2v12.7H257v-10.7h0l-4.6,10.7h-0.9l-4.6-10.7h0v10.7h-1.5V163.3z"/>
	<path fill="#63686D" d="M261.6,163.3h1.5v12.7h-1.5V163.3z"/>
	<path fill="#63686D" d="M274.8,164.7h-4.2v11.3H269v-11.3h-4.2v-1.4h9.9V164.7z"/>
</g>
</svg>
